<svg height="512" viewBox="0 0 512 512" width="512" xmlns="http://www.w3.org/2000/svg"><g id="filled_outline" data-name="filled outline"><path d="m248.94 83-16.85 1.87-28.05 3.11a67.587 67.587 0 0 1 -58.79-23.19l-19.13-22.31-11.23-13.1 17.24-1.72 33.15-3.32a67.632 67.632 0 0 1 61.75 27.97l13.3 18.63z" fill="#029532"/><path d="m256.37 85.97a7.978 7.978 0 0 1 -10.4 4.45l-13.88-5.55-105.97-42.39-11.23-13.1 17.24-1.72 108.2 43.28 11.58 4.63a8 8 0 0 1 4.46 10.4z" fill="#02a437"/><path d="m268.489 130.148.835-5.011a122.049 122.049 0 0 1 34.086-66.237l17.028-17.027h-44.684a122.043 122.043 0 0 0 -35.747 86.3 12 12 0 0 0 12 12h4.639a12 12 0 0 0 11.843-10.025z" fill="#02a437"/><path d="m336.177 122.649a69.071 69.071 0 0 0 -27.11 2.722 173.168 173.168 0 0 1 -99.806 0 69.073 69.073 0 0 0 -27.11-2.722c-63.833 6.501-120.689 60.151-103.006 172.288 17.874 113.344 80.824 199.218 144.655 192.717q2.385-.243 4.731-.653a178.142 178.142 0 0 1 61.261 0q2.346.411 4.732.654c63.833 6.5 124.216-79.373 142.09-192.717 17.686-112.138-36.604-165.788-100.437-172.289z" fill="#e82f3e"/><path d="m436.62 294.94c-17.09 108.33-73.01 191.57-133.65 193.03l-11.73-3.24a48.34 48.34 0 0 1 -34.73-46.41v-227.46a84.333 84.333 0 0 1 24.7-59.64 119.745 119.745 0 0 1 46.71-28.89 65.334 65.334 0 0 1 8.26.32c63.83 6.5 118.12 60.15 100.44 172.29z" fill="#ffc864"/><path d="m123.829 219.672a8 8 0 0 1 -8-8 58.441 58.441 0 0 1 17.395-41.456 8 8 0 0 1 11.209 11.418 42.343 42.343 0 0 0 -12.6 30.038 8 8 0 0 1 -8.004 8z" fill="#ff3444"/><path d="m123.829 255.419a8 8 0 0 1 -8-8v-8.937a8 8 0 0 1 16 0v8.937a8 8 0 0 1 -8 8z" fill="#ff3444"/><g fill="#ea9d2d"><path d="m312 304 23.523-11.761a13.149 13.149 0 0 1 15.177 2.461 13.15 13.15 0 0 1 0 18.6 13.149 13.149 0 0 1 -15.179 2.463z"/><path d="m288 262.431 1.576-26.252a13.149 13.149 0 0 1 9.722-11.914 13.149 13.149 0 0 1 16.105 9.3 13.15 13.15 0 0 1 -5.456 14.377z"/><path d="m288 345.569 21.947 14.491a13.15 13.15 0 0 1 5.456 14.377 13.149 13.149 0 0 1 -16.105 9.3 13.149 13.149 0 0 1 -9.722-11.914z"/></g><path d="m419.7 159.343c-19.532-25.353-48.907-41.21-82.714-44.654a74.812 74.812 0 0 0 -8.389-.362 7.905 7.905 0 0 0 -1.581.039 78.742 78.742 0 0 0 -20.261 3.346 165.292 165.292 0 0 1 -29.025 5.978 113.346 113.346 0 0 1 31.336-59.132l17.034-17.029a8 8 0 0 0 -5.657-13.656h-44.689a8 8 0 0 0 -5.656 2.343 130.514 130.514 0 0 0 -22.821 30.684l-13.741-19.237a75.786 75.786 0 0 0 -69.048-31.287l-50.388 5.04a8 8 0 0 0 -5.279 13.166l30.351 35.418a75.549 75.549 0 0 0 57.381 26.4 76.1 76.1 0 0 0 8.376-.463l32.05-3.562a130.143 130.143 0 0 0 -4.843 30.109 165.647 165.647 0 0 1 -20.565-4.772 77.171 77.171 0 0 0 -30.231-3.023c-34.635 3.528-64.785 19.847-84.9 45.951-25.292 32.829-34.006 79.7-25.2 135.544 8.888 56.362 28.983 107.8 56.582 144.834 26.616 35.716 58 54.984 89.162 54.982a75.372 75.372 0 0 0 7.626-.387c1.758-.179 3.539-.425 5.3-.731a169.386 169.386 0 0 1 58.506 0c1.752.306 3.535.553 5.3.732 33.522 3.4 67.458-16 95.56-54.673 26.7-36.729 46.314-88.138 55.242-144.756 8.96-56.822.382-104.14-24.818-136.842zm-253.62-127.043a59.768 59.768 0 0 1 54.437 24.667l6.047 8.465-78.364-31.348zm37.081 47.738a59.574 59.574 0 0 1 -51.841-20.455l-9.156-10.683 74.174 29.67zm75.971-30.161h21.993l-3.371 3.371a129.309 129.309 0 0 0 -36.32 70.577l-.15.895q-6.606.086-13.208-.351a113.18 113.18 0 0 1 31.056-74.496zm-51.972 429.243c-1.385.241-2.787.435-4.169.575-27.8 2.836-57.047-14.3-82.338-48.238-26.077-34.993-45.115-83.919-53.606-137.766-8.105-51.394-.473-94.026 22.07-123.286 17.4-22.587 43.626-36.72 73.844-39.8a58.5 58.5 0 0 1 5.938-.3 62.413 62.413 0 0 1 18.051 2.723 180.234 180.234 0 0 0 75.418 6.223c-2.347 2.024-4.628 4.124-6.819 6.314a91.73 91.73 0 0 0 -27.043 65.289v227.463a56.105 56.105 0 0 0 14.815 38.067 185.5 185.5 0 0 0 -36.161 2.736zm201.553-185.429c-8.541 54.167-27.144 103.121-52.379 137.843-22.242 30.6-47.886 47.512-72.982 48.417l-9.855-2.9a40.375 40.375 0 0 1 -28.991-38.738v-227.457a75.828 75.828 0 0 1 22.357-53.974 112.284 112.284 0 0 1 42.488-26.575 58.56 58.56 0 0 1 6.015.3c29.816 3.037 54.6 16.35 71.66 38.5 22.446 29.134 29.945 72.214 21.687 124.584z"/><path d="m133.224 170.216a58.441 58.441 0 0 0 -17.395 41.456 8 8 0 0 0 16 0 42.343 42.343 0 0 1 12.6-30.038 8 8 0 0 0 -11.209-11.418z"/><path d="m123.829 230.482a8 8 0 0 0 -8 8v8.937a8 8 0 0 0 16 0v-8.937a8 8 0 0 0 -8-8z"/><path d="m331.944 285.083-23.522 11.762a8 8 0 0 0 0 14.31l23.522 11.762a21.15 21.15 0 1 0 0-37.834zm13.1 22.558a5.144 5.144 0 0 1 -5.944.965l-9.212-4.606 9.213-4.606a5.149 5.149 0 0 1 5.944 8.247z"/><path d="m284 269.358a7.994 7.994 0 0 0 8.408-.252l21.947-14.49a21.15 21.15 0 1 0 -32.764-18.916l-1.576 26.252a8 8 0 0 0 3.985 7.406zm13.562-32.7a5.149 5.149 0 1 1 7.977 4.608l-8.595 5.673z"/><path d="m314.355 353.384-21.947-14.49a8 8 0 0 0 -12.393 7.155l1.576 26.252a21.149 21.149 0 1 0 32.764-18.917zm-6.679 18.982a5.149 5.149 0 0 1 -10.114-1.024l-.618-10.28 8.595 5.673a5.144 5.144 0 0 1 2.137 5.631z"/></g></svg>