<svg height="512" viewBox="0 0 512 512" width="512" xmlns="http://www.w3.org/2000/svg"><g id="filled_outline" data-name="filled outline"><path d="m168 104a8 8 0 0 1 -8-8 41.245 41.245 0 0 1 28.239-39.179l1.23-.41a8 8 0 0 1 5.062 15.178l-1.231.411a25.267 25.267 0 0 0 -17.3 24 8 8 0 0 1 -8 8z" fill="#683b0d"/><path d="m244.468 171.765-11.558-30.821a69.265 69.265 0 0 0 -64.854-44.944 69.264 69.264 0 0 0 -64.856 44.944l-11.556 30.821a534.566 534.566 0 0 1 -49.539 99.3 115.81 115.81 0 0 0 -15.139 88.213 115.806 115.806 0 0 0 66.422 80.055 186.288 186.288 0 0 0 149.335 0 115.806 115.806 0 0 0 66.422-80.055 115.81 115.81 0 0 0 -15.139-88.213 534.5 534.5 0 0 1 -49.538-99.3z" fill="#668d31"/><path d="m420.356 172.813-11.556-30.821a69.264 69.264 0 0 0 -64.854-44.944 69.265 69.265 0 0 0 -64.854 44.944l-11.558 30.821a534.512 534.512 0 0 1 -49.539 99.3 115.808 115.808 0 0 0 -15.139 88.212 115.805 115.805 0 0 0 66.423 80.055 186.288 186.288 0 0 0 149.335 0 115.806 115.806 0 0 0 66.422-80.055 115.808 115.808 0 0 0 -15.136-88.211 534.574 534.574 0 0 1 -49.544-99.301z" fill="#fbb540"/><path d="m423.944 316c7.726 50.219-35.817 92-80 92s-87.726-41.781-80-92c8-52 35.817-92 80-92s72 40 80 92z" fill="#683b0d"/><path d="m324.284 372.34a7.976 7.976 0 0 1 -5.657-2.34c-1.544-1.545-3.04-3.173-4.445-4.84a8 8 0 1 1 12.232-10.314c1.115 1.323 2.3 2.615 3.527 3.84a8 8 0 0 1 -5.657 13.657z" fill="#834b10"/><path d="m307.119 344a8 8 0 0 1 -7.632-5.61 77.449 77.449 0 0 1 -.733-43.83 8 8 0 0 1 15.42 4.271 61.442 61.442 0 0 0 .581 34.775 8.006 8.006 0 0 1 -7.636 10.394z" fill="#834b10"/><g fill="#79a73a"><path d="m128 192a8.006 8.006 0 0 1 -7.59-10.532l2.94-8.821a90.432 90.432 0 0 0 4.65-28.647 8 8 0 0 1 16 0 106.392 106.392 0 0 1 -5.47 33.708l-2.941 8.822a8 8 0 0 1 -7.589 5.47z"/><path d="m111.993 408a7.96 7.96 0 0 1 -4.431-1.345l-11.646-7.764a94.429 94.429 0 0 1 -23.224-21.969 83.458 83.458 0 0 1 -2.675-96.37 327.287 327.287 0 0 0 31.5-59.874l3.06-7.65a8 8 0 1 1 14.856 5.942l-3.06 7.651a343.431 343.431 0 0 1 -33.043 62.807 67.458 67.458 0 0 0 2.162 77.895 78.506 78.506 0 0 0 19.3 18.257l11.646 7.764a8 8 0 0 1 -4.445 14.656z"/><circle cx="225" cy="205" r="7"/><circle cx="209" cy="225" r="7"/><circle cx="217" cy="175" r="7"/><circle cx="203" cy="151" r="7"/><circle cx="201" cy="199" r="7"/></g><path d="m343.944 463.949a194.328 194.328 0 0 1 -77.874-16.239 123.8 123.8 0 0 1 -54.825-179.891 527.7 527.7 0 0 0 48.797-97.819l11.558-30.817a77.264 77.264 0 0 1 144.689 0l11.558 30.817a527.577 527.577 0 0 0 48.8 97.815 123.8 123.8 0 0 1 -54.829 179.895 194.349 194.349 0 0 1 -77.874 16.239zm0-358.9a61.549 61.549 0 0 0 -57.363 39.751l-11.558 30.821a543.645 543.645 0 0 1 -50.28 100.787 107.8 107.8 0 0 0 47.74 156.643 178.8 178.8 0 0 0 142.922 0 107.8 107.8 0 0 0 47.741-156.643 543.711 543.711 0 0 1 -50.281-100.787l-11.558-30.821a61.548 61.548 0 0 0 -57.363-39.752z" fill="#89b140"/><path d="m492.829 362.125a124.559 124.559 0 0 0 -16.184-94.306 527.577 527.577 0 0 1 -48.798-97.819l-11.558-30.821a77.264 77.264 0 0 0 -144.689 0l-11.558 30.821q-1.86 4.959-3.832 9.879c-1.457-3.636-2.885-7.282-4.252-10.927l-11.558-30.817a77.683 77.683 0 0 0 -63.269-49.591 25.256 25.256 0 0 1 16.169-16.544l1.232-.411a8 8 0 0 0 -5.062-15.178l-1.23.41a41.236 41.236 0 0 0 -27.526 31.547 77.669 77.669 0 0 0 -65 49.767l-11.561 30.821a527.484 527.484 0 0 1 -48.8 97.815 123.8 123.8 0 0 0 54.829 179.891 194.842 194.842 0 0 0 155.748 0c3.092-1.352 6.146-2.851 9.13-4.459a122.455 122.455 0 0 0 11.01 5.507 194.842 194.842 0 0 0 155.748 0 124.332 124.332 0 0 0 71.011-85.585zm-253.312 69.875a178.8 178.8 0 0 1 -142.917 0 107.805 107.805 0 0 1 -47.746-156.64 543.671 543.671 0 0 0 50.281-100.786l11.558-30.821a61.263 61.263 0 0 1 114.726 0l11.558 30.821c3.261 8.695 6.8 17.4 10.51 25.935a527.517 527.517 0 0 1 -36.242 67.31 123.7 123.7 0 0 0 28.423 164.116c-.051.022-.101.047-.151.065zm175.888 1.048a178.8 178.8 0 0 1 -142.922 0 107.8 107.8 0 0 1 -47.74-156.643 543.645 543.645 0 0 0 50.28-100.787l11.558-30.818a61.263 61.263 0 0 1 114.726 0l11.558 30.821a543.711 543.711 0 0 0 50.281 100.787 107.8 107.8 0 0 1 -47.741 156.643z"/><path d="m343.944 216c-44.848 0-78.532 37.852-87.906 98.784-3.809 24.755 3.395 49.229 20.283 68.914 17.352 20.227 42.632 32.3 67.623 32.3s50.271-12.075 67.623-32.3c16.889-19.685 24.093-44.16 20.284-68.914-9.374-60.932-43.058-98.784-87.907-98.784zm55.48 157.28c-14.354 16.731-35.094 26.72-55.48 26.72s-41.126-9.989-55.48-26.72c-13.8-16.086-19.7-36-16.613-56.064 3.893-25.3 12.441-46.621 24.721-61.655 12.769-15.634 28.708-23.561 47.372-23.561s34.6 7.927 47.373 23.561c12.28 15.034 20.828 36.354 24.721 61.655 3.087 20.068-2.813 39.978-16.614 56.064z"/><path d="m136 136a8 8 0 0 0 -8 8 90.432 90.432 0 0 1 -4.649 28.649l-2.94 8.821a8 8 0 1 0 15.178 5.06l2.941-8.822a106.392 106.392 0 0 0 5.47-33.708 8 8 0 0 0 -8-8z"/><path d="m116.438 393.344-11.647-7.764a78.506 78.506 0 0 1 -19.3-18.257 67.458 67.458 0 0 1 -2.162-77.895 343.431 343.431 0 0 0 33.038-62.806l3.06-7.651a8 8 0 1 0 -14.856-5.942l-3.06 7.65a327.287 327.287 0 0 1 -31.5 59.874 83.458 83.458 0 0 0 2.675 96.37 94.429 94.429 0 0 0 23.224 21.969l11.646 7.764a8 8 0 0 0 8.876-13.312z"/><circle cx="225" cy="205" r="7"/><circle cx="209" cy="225" r="7"/><circle cx="217" cy="175" r="7"/><circle cx="203" cy="151" r="7"/><circle cx="201" cy="199" r="7"/><path d="m326.414 354.843a8 8 0 1 0 -12.232 10.314c1.4 1.667 2.9 3.3 4.445 4.84a8 8 0 1 0 11.314-11.314c-1.225-1.225-2.412-2.517-3.527-3.84z"/><path d="m314.755 333.608a61.442 61.442 0 0 1 -.581-34.775 8 8 0 0 0 -15.42-4.271 77.449 77.449 0 0 0 .733 43.83 8 8 0 0 0 15.268-4.784z"/></g></svg>