<svg height="512" viewBox="0 0 512 512" width="512" xmlns="http://www.w3.org/2000/svg"><g id="filled_outline" data-name="filled outline"><ellipse cx="200" cy="252" fill="#e82f3e" rx="176" ry="164"/><path d="m366.96 304c-23.33 65.09-89.27 112-166.96 112a188.875 188.875 0 0 1 -38.81-4c-25.71-29.2-41.19-66.88-41.19-108z" fill="#e82f3e"/><path d="m366.96 304c-23.33 65.09-89.27 112-166.96 112a188.875 188.875 0 0 1 -38.81-4 163.072 163.072 0 0 1 -40.973-99.58 8.011 8.011 0 0 1 8-8.42z" fill="#961b20"/><path d="m79.416 191a8 8 0 0 1 -6.716-12.338c1.853-2.871 3.838-5.72 5.9-8.467a8 8 0 1 1 12.8 9.605c-1.835 2.445-3.6 4.979-5.25 7.533a8 8 0 0 1 -6.734 3.667z" fill="#ff3444"/><path d="m70.569 319a8 8 0 0 1 -7.251-4.612 140.263 140.263 0 0 1 -9.046-93.329 8 8 0 0 1 15.528 3.879 124.251 124.251 0 0 0 8.015 82.672 8 8 0 0 1 -7.246 11.39z" fill="#ff3444"/><path d="m172.382 38.829 8.048 33.171h-24.509a59.732 59.732 0 0 0 -35.843 11.945 60.072 60.072 0 0 1 -36.085 12.055h-19.993l18.232 12.154a61.65 61.65 0 0 0 61.768 3.846 40.933 40.933 0 0 1 -9.889 41.889l-6.111 6.111 25.279-4.213a40.934 40.934 0 0 0 31.276-25.174l7.445-18.613.423.141a49.7 49.7 0 0 1 31.436 31.436l8.141 24.423 13.881-27.761a31.4 31.4 0 0 0 -5.881-36.239l8.157 4.078a69.621 69.621 0 0 0 74.628-7.906l5.215-4.172h-23.029a40.971 40.971 0 0 1 -28.971-12 40.971 40.971 0 0 0 -28.971-12h-34.6l8-33.188a12 12 0 0 0 -11.665-14.812h-24.72a12 12 0 0 0 -11.662 14.829z" fill="#02a437"/><path d="m488 320c0 92.784-78.8 168-176 168-94.242 0-171.184-70.7-175.782-159.574a8.012 8.012 0 0 1 8-8.426z" fill="#e82f3e"/><path d="m251.522 350.4a40.356 40.356 0 0 0 -24.6-4.766l-.194.024a40.351 40.351 0 0 0 -10.89 77.128 244.115 244.115 0 0 0 192.326 0 40.351 40.351 0 0 0 -10.89-77.128l-.194-.024a40.356 40.356 0 0 0 -24.6 4.766 124.533 124.533 0 0 1 -120.958 0z" fill="#961b20"/><g fill="#fbb540"><circle cx="239" cy="390" r="16"/><circle cx="312" cy="405" r="16"/><circle cx="385" cy="390" r="16"/></g><path d="m160.72 420.063c33.249 45.849 88.655 75.937 151.28 75.937 101.458 0 184-78.953 184-176a8 8 0 0 0 -8-8h-115.508a160.913 160.913 0 0 0 11.508-60c0-53.812-26.426-103.6-71.446-136.086a77.108 77.108 0 0 0 15.229-9.5l5.217-4.167a8 8 0 0 0 -5-14.247h-23.029a32.756 32.756 0 0 1 -23.314-9.657 48.653 48.653 0 0 0 -34.628-14.343h-24.442l5.62-23.313a20 20 0 0 0 -19.443-24.687h-24.72a20 20 0 0 0 -19.437 24.715l5.649 23.285h-14.334-.008a68.151 68.151 0 0 0 -40.636 13.546 51.765 51.765 0 0 1 -31.278 10.454h-20a8 8 0 0 0 -4.438 14.656l18.232 12.155a69.433 69.433 0 0 0 6.217 3.671c-42.841 32.541-68.011 81.441-68.011 133.518 0 39.75 14.844 78.52 41.8 109.167 26.248 29.845 62.766 50.733 102.92 58.896zm151.28 59.937c-89.819 0-163.4-67.477-167.793-152h335.586c-4.393 84.523-77.974 152-167.793 152zm-187.122-389.659a52.054 52.054 0 0 1 31.036-10.341h.006 24.509a8 8 0 0 0 7.774-9.886l-8.048-33.171a4 4 0 0 1 3.889-4.943h24.72a4 4 0 0 1 3.888 4.938l-8 33.187a8 8 0 0 0 7.778 9.875h34.6a32.756 32.756 0 0 1 23.314 9.657 48.611 48.611 0 0 0 29.811 14.111 61.814 61.814 0 0 1 -48.42-2.845l-8.156-4.078a8 8 0 0 0 -9.235 12.812 23.366 23.366 0 0 1 4.383 27l-5.244 10.486-2.034-6.1a57.978 57.978 0 0 0 -36.493-36.493l-.423-.141a8 8 0 0 0 -9.96 4.617l-7.445 18.613a33.123 33.123 0 0 1 -25.165 20.261l-3.9.649a48.649 48.649 0 0 0 3.525-39.075 8 8 0 0 0 -11.168-4.625 53.786 53.786 0 0 1 -50.12-1.135 67.644 67.644 0 0 0 34.578-13.373zm-22.484 34.7a69.882 69.882 0 0 0 35.67-1.981 32.734 32.734 0 0 1 -9.61 25.173l-6.111 6.111a8 8 0 0 0 6.972 13.548l25.279-4.213a49.213 49.213 0 0 0 37.388-30.094l4.417-11.042a41.936 41.936 0 0 1 19.871 23.564l8.14 24.424a8 8 0 0 0 7.023 5.45c.19.013.38.02.569.02a8 8 0 0 0 7.153-4.422l13.881-27.762a39.33 39.33 0 0 0 3.691-23.748 77.952 77.952 0 0 0 36.36 2.074c46.959 29.065 74.913 77.387 74.913 129.857a145.2 145.2 0 0 1 -12.888 60h-219.112a8 8 0 0 0 -8 8 168.829 168.829 0 0 0 20.4 80.488c-30.58-9.188-58.049-26.536-78.588-49.888-24.383-27.725-37.812-62.742-37.812-98.6 0-50.433 26.259-97.651 70.394-126.96z"/><path d="m75.086 189.721a8 8 0 0 0 11.06-2.384c1.648-2.554 3.415-5.088 5.25-7.533a8 8 0 1 0 -12.796-9.604c-2.064 2.747-4.049 5.6-5.9 8.467a8 8 0 0 0 2.386 11.054z"/><path d="m73.955 318.246a8 8 0 0 0 3.856-10.636 124.251 124.251 0 0 1 -8.011-82.672 8 8 0 0 0 -15.524-3.877 140.263 140.263 0 0 0 9.046 93.329 7.994 7.994 0 0 0 10.637 3.856z"/><path d="m312 358.073a116.811 116.811 0 0 1 -56.593-14.665 48.055 48.055 0 0 0 -29.483-5.711l-.19.024a48.351 48.351 0 0 0 -39.274 64.955 48.576 48.576 0 0 0 26.226 27.465 253.231 253.231 0 0 0 198.628 0 48.571 48.571 0 0 0 26.226-27.464 48.35 48.35 0 0 0 -39.269-64.954l-.2-.026a48.038 48.038 0 0 0 -29.478 5.712 116.811 116.811 0 0 1 -56.593 14.664zm84.082-4.5.2.026a32.352 32.352 0 0 1 26.279 43.46 32.51 32.51 0 0 1 -17.548 18.377 237.163 237.163 0 0 1 -186.024 0 32.507 32.507 0 0 1 -17.548-18.375 32.353 32.353 0 0 1 26.283-43.461l.189-.024a32.722 32.722 0 0 1 4.066-.254 32.117 32.117 0 0 1 15.659 4.076 132.529 132.529 0 0 0 128.724 0 32.142 32.142 0 0 1 19.72-3.826z"/><path d="m239 366a24 24 0 1 0 24 24 24.027 24.027 0 0 0 -24-24zm0 32a8 8 0 1 1 8-8 8.009 8.009 0 0 1 -8 8z"/><path d="m288 405a24 24 0 1 0 24-24 24.027 24.027 0 0 0 -24 24zm32 0a8 8 0 1 1 -8-8 8.009 8.009 0 0 1 8 8z"/><path d="m385 414a24 24 0 1 0 -24-24 24.027 24.027 0 0 0 24 24zm0-32a8 8 0 1 1 -8 8 8.009 8.009 0 0 1 8-8z"/></g></svg>